{
	"asset":{
		"generator":"Khronos glTF Blender I/O v4.0.44",
		"version":"2.0"
	},
	"scene":0,
	"scenes":[
		{
			"extras":{
				"MPFB_ADR_standard_rig":4
			},
			"name":"Scene",
			"nodes":[
				54
			]
		}
	],
	"nodes":[
		{
			"name":"mixamorig:LeftToeBase",
			"rotation":[
				0.18927006423473358,
				-0.30181369185447693,
				0.04494445025920868,
				0.9333088397979736
			],
			"scale":[
				1,
				1.0000001192092896,
				1
			],
			"translation":[
				1.862645149230957e-09,
				0.15014025568962097,
				-8.09086486697197e-09
			]
		},
		{
			"children":[
				0
			],
			"name":"mixamorig:LeftFoot",
			"rotation":[
				0.5981703400611877,
				0.010367470793426037,
				0.06130581349134445,
				0.7989532947540283
			],
			"scale":[
				0.9999998807907104,
				1,
				1
			],
			"translation":[
				2.140586730092764e-08,
				0.381732314825058,
				0
			]
		},
		{
			"children":[
				1
			],
			"name":"mixamorig:LeftLeg",
			"rotation":[
				-0.0693773552775383,
				0.04799148812890053,
				0.014444557949900627,
				0.996330738067627
			],
			"scale":[
				1,
				0.9999999403953552,
				0.9999999403953552
			],
			"translation":[
				-1.4435499906539917e-08,
				0.4212777018547058,
				-3.725290298461914e-09
			]
		},
		{
			"children":[
				2
			],
			"name":"mixamorig:LeftUpLeg",
			"rotation":[
				0.05334900692105293,
				-0.03959363326430321,
				-0.9963496923446655,
				0.05360516905784607
			],
			"scale":[
				1.0000014305114746,
				1,
				1.0000009536743164
			],
			"translation":[
				0.10892417281866074,
				-0.046577706933021545,
				-0.011052078567445278
			]
		},
		{
			"name":"mixamorig:RightToeBase",
			"rotation":[
				-0.09676025807857513,
				-0.8978040218353271,
				-0.16876110434532166,
				0.395101398229599
			],
			"scale":[
				0.9999999403953552,
				0.9999998211860657,
				1
			],
			"translation":[
				8.381903171539307e-09,
				0.15014104545116425,
				1.0244548320770264e-08
			]
		},
		{
			"children":[
				4
			],
			"name":"mixamorig:RightFoot",
			"rotation":[
				0.5750234723091125,
				-0.16469229757785797,
				-0.17583176493644714,
				0.7818616628646851
			],
			"scale":[
				0.9999999403953552,
				0.9999998807907104,
				0.9999998807907104
			],
			"translation":[
				1.9514118321239948e-08,
				0.381732702255249,
				-1.0477378964424133e-09
			]
		},
		{
			"children":[
				5
			],
			"name":"mixamorig:RightLeg",
			"rotation":[
				-0.06937789171934128,
				-0.048001375049352646,
				-0.014446185901761055,
				0.996330201625824
			],
			"scale":[
				1.0000001192092896,
				1.0000001192092896,
				0.9999999403953552
			],
			"translation":[
				4.889443516731262e-09,
				0.421277791261673,
				1.862645149230957e-09
			]
		},
		{
			"children":[
				6
			],
			"name":"mixamorig:RightUpLeg",
			"rotation":[
				0.04384775832295418,
				0.03852443769574165,
				0.9962436556816101,
				0.06396742165088654
			],
			"scale":[
				0.999985933303833,
				0.9999997615814209,
				0.9999938011169434
			],
			"translation":[
				-0.1117839366197586,
				-0.04436799883842468,
				-0.013241435401141644
			]
		},
		{
			"name":"mixamorig:LeftHandIndex3",
			"rotation":[
				-0.009320863522589207,
				-0.03664180636405945,
				-0.014005466364324093,
				0.9991868138313293
			],
			"scale":[
				1,
				0.9999999403953552,
				1
			],
			"translation":[
				-4.400499165058136e-08,
				0.02263665199279785,
				-5.8673322200775146e-08
			]
		},
		{
			"children":[
				8
			],
			"name":"mixamorig:LeftHandIndex2",
			"rotation":[
				-0.05585378780961037,
				-0.21701528131961823,
				-0.08291825652122498,
				0.9710351824760437
			],
			"scale":[
				1,
				1.0000001192092896,
				1
			],
			"translation":[
				-1.1175870895385742e-08,
				0.025199823081493378,
				0
			]
		},
		{
			"children":[
				9
			],
			"name":"mixamorig:LeftHandIndex1",
			"rotation":[
				0.16577988862991333,
				-0.3345625102519989,
				-0.025714289397001266,
				0.9273207783699036
			],
			"scale":[
				1,
				0.9999999403953552,
				1
			],
			"translation":[
				-0.01955614984035492,
				0.09232020378112793,
				0.03297478333115578
			]
		},
		{
			"name":"mixamorig:LeftHandMiddle3",
			"rotation":[
				-0.012776066549122334,
				0.012423941865563393,
				0.003327050944790244,
				0.9998356699943542
			],
			"scale":[
				0.9999999403953552,
				0.9999999403953552,
				1
			],
			"translation":[
				-1.1175870895385742e-08,
				0.02497454732656479,
				1.1920928955078125e-07
			]
		},
		{
			"children":[
				11
			],
			"name":"mixamorig:LeftHandMiddle2",
			"rotation":[
				0.028946755453944206,
				-0.22129029035568237,
				-0.09629369527101517,
				0.9700104594230652
			],
			"scale":[
				1.0000001192092896,
				1.0000001192092896,
				1
			],
			"translation":[
				6.705522537231445e-08,
				0.03184342384338379,
				-1.4901161193847656e-08
			]
		},
		{
			"children":[
				12
			],
			"name":"mixamorig:LeftHandMiddle1",
			"rotation":[
				0.030653465539216995,
				-0.1697372943162918,
				-0.030288470908999443,
				0.9845467209815979
			],
			"translation":[
				-0.004795297980308533,
				0.09535862505435944,
				0.013464156538248062
			]
		},
		{
			"name":"mixamorig:LeftHandPinky3",
			"rotation":[
				-0.016096245497465134,
				-0.012688488699495792,
				-0.01109952200204134,
				0.9997283220291138
			],
			"scale":[
				1,
				1,
				0.9999999403953552
			],
			"translation":[
				3.3527612686157227e-08,
				0.014203444123268127,
				-5.21540641784668e-08
			]
		},
		{
			"children":[
				14
			],
			"name":"mixamorig:LeftHandPinky2",
			"rotation":[
				0.0009173276484943926,
				-0.1062016412615776,
				-0.06852824240922928,
				0.9919799566268921
			],
			"scale":[
				1,
				1,
				0.9999999403953552
			],
			"translation":[
				5.21540641784668e-08,
				0.021519064903259277,
				-2.9802322387695312e-08
			]
		},
		{
			"children":[
				15
			],
			"name":"mixamorig:LeftHandPinky1",
			"rotation":[
				-0.05377059057354927,
				-0.2582729458808899,
				-0.14528019726276398,
				0.9535709023475647
			],
			"scale":[
				1,
				1.0000001192092896,
				1
			],
			"translation":[
				0.016829028725624084,
				0.08561210334300995,
				-0.018728602677583694
			]
		},
		{
			"name":"mixamorig:LeftHandRing3",
			"rotation":[
				-0.02674907073378563,
				0.020198291167616844,
				0.004585575312376022,
				0.9994276165962219
			],
			"scale":[
				0.9999999403953552,
				1,
				1
			],
			"translation":[
				-6.705522537231445e-08,
				0.02369026094675064,
				7.450580596923828e-08
			]
		},
		{
			"children":[
				17
			],
			"name":"mixamorig:LeftHandRing2",
			"rotation":[
				0.04709837585687637,
				-0.19993354380130768,
				-0.09904301911592484,
				0.9736523032188416
			],
			"translation":[
				6.705522537231445e-08,
				0.028165817260742188,
				2.9802322387695312e-08
			]
		},
		{
			"children":[
				18
			],
			"name":"mixamorig:LeftHandRing1",
			"rotation":[
				-0.0439983606338501,
				-0.12591002881526947,
				-0.060208749026060104,
				0.9892349243164062
			],
			"translation":[
				0.004822917282581329,
				0.09179989993572235,
				-0.0037732310593128204
			]
		},
		{
			"name":"mixamorig:LeftHandThumb3",
			"rotation":[
				-0.026603104546666145,
				0.05239259824156761,
				0.024709880352020264,
				0.9979662895202637
			],
			"scale":[
				1,
				1.0000001192092896,
				0.9999998211860657
			],
			"translation":[
				-4.6566128730773926e-09,
				0.035924553871154785,
				-4.470348358154297e-08
			]
		},
		{
			"children":[
				20
			],
			"name":"mixamorig:LeftHandThumb2",
			"rotation":[
				-0.06701372563838959,
				0.07470740377902985,
				0.0948481559753418,
				0.9904200434684753
			],
			"scale":[
				0.9999998807907104,
				0.9999999403953552,
				0.9999999403953552
			],
			"translation":[
				1.1175870895385742e-08,
				0.026392653584480286,
				-5.960464477539063e-08
			]
		},
		{
			"children":[
				21
			],
			"name":"mixamorig:LeftHandThumb1",
			"rotation":[
				0.3455110490322113,
				-0.7088861465454102,
				-0.3191055953502655,
				0.5256178975105286
			],
			"scale":[
				0.9999999403953552,
				1,
				1
			],
			"translation":[
				-0.003023795783519745,
				0.02923355996608734,
				0.03022056445479393
			]
		},
		{
			"children":[
				10,
				13,
				16,
				19,
				22
			],
			"name":"mixamorig:LeftHand",
			"rotation":[
				0.03928978368639946,
				-0.14411087334156036,
				-0.10492801666259766,
				0.9831981062889099
			],
			"scale":[
				0.9999999403953552,
				1.0000001192092896,
				1
			],
			"translation":[
				1.6763806343078613e-08,
				0.22631537914276123,
				-5.21540641784668e-08
			]
		},
		{
			"children":[
				23
			],
			"name":"mixamorig:LeftForeArm",
			"rotation":[
				0.23953934013843536,
				0.09872674942016602,
				0.3178028166294098,
				0.9120720028877258
			],
			"scale":[
				0.9999999403953552,
				0.9999998807907104,
				0.9999998807907104
			],
			"translation":[
				-2.60770320892334e-08,
				0.22761467099189758,
				-1.4901161193847656e-08
			]
		},
		{
			"children":[
				24
			],
			"name":"mixamorig:LeftArm",
			"rotation":[
				0.28717198967933655,
				-0.3276952803134918,
				-0.022309962660074234,
				0.8998057246208191
			],
			"translation":[
				3.725290298461914e-09,
				0.11138294637203217,
				1.6542617231607437e-07
			]
		},
		{
			"children":[
				25
			],
			"name":"mixamorig:LeftShoulder",
			"rotation":[
				0.46223148703575134,
				0.4258275628089905,
				-0.6791741847991943,
				0.37912434339523315
			],
			"scale":[
				1.0000001192092896,
				1.000000238418579,
				1
			],
			"translation":[
				0.06650501489639282,
				0.13226255774497986,
				0.03888291120529175
			]
		},
		{
			"name":"mixamorig:Head",
			"rotation":[
				0.0562027283012867,
				-0.004436893854290247,
				-0.005021336954087019,
				0.9983968734741211
			],
			"scale":[
				0.9999998807907104,
				1,
				0.9999998211860657
			],
			"translation":[
				-0.0018899999558925629,
				0.055603306740522385,
				0.029318584129214287
			]
		},
		{
			"children":[
				27
			],
			"name":"mixamorig:Neck",
			"rotation":[
				-0.10599512606859207,
				1.7053513264008148e-18,
				7.34594865616396e-18,
				0.9943666458129883
			],
			"translation":[
				-8.202189054214165e-19,
				0.156790092587471,
				-1.3969838619232178e-09
			]
		},
		{
			"name":"mixamorig:RightHandIndex3",
			"rotation":[
				-0.009328498505055904,
				0.03673675283789635,
				0.014000413939356804,
				0.9991833567619324
			],
			"translation":[
				2.584420144557953e-08,
				0.02263658121228218,
				3.725290298461914e-09
			]
		},
		{
			"children":[
				29
			],
			"name":"mixamorig:RightHandIndex2",
			"rotation":[
				-0.055893659591674805,
				0.21697889268398285,
				0.08289137482643127,
				0.9710432887077332
			],
			"scale":[
				1,
				1.0000001192092896,
				1
			],
			"translation":[
				-1.862645149230957e-08,
				0.025199808180332184,
				5.960464477539063e-08
			]
		},
		{
			"children":[
				30
			],
			"name":"mixamorig:RightHandIndex1",
			"rotation":[
				0.1435437649488449,
				0.21992453932762146,
				0.025843234732747078,
				0.9645519852638245
			],
			"scale":[
				0.9999999403953552,
				1,
				1
			],
			"translation":[
				0.01399548351764679,
				0.09347045421600342,
				0.03256078064441681
			]
		},
		{
			"name":"mixamorig:RightHandMiddle3",
			"rotation":[
				-0.012771030887961388,
				-0.012434064410626888,
				-0.003346178214997053,
				0.9998355507850647
			],
			"scale":[
				0.9999999403953552,
				0.9999998807907104,
				1
			],
			"translation":[
				3.3527612686157227e-08,
				0.024974435567855835,
				8.940696716308594e-08
			]
		},
		{
			"children":[
				32
			],
			"name":"mixamorig:RightHandMiddle2",
			"rotation":[
				0.028802739456295967,
				0.22130019962787628,
				0.09633684903383255,
				0.970008134841919
			],
			"scale":[
				1.0000001192092896,
				1.000000238418579,
				1
			],
			"translation":[
				-9.685754776000977e-08,
				0.031843483448028564,
				-5.960464477539063e-08
			]
		},
		{
			"children":[
				33
			],
			"name":"mixamorig:RightHandMiddle1",
			"rotation":[
				0.00546322762966156,
				0.051784448325634,
				0.0173986554145813,
				0.9984917640686035
			],
			"scale":[
				1.0000001192092896,
				0.9999998807907104,
				1
			],
			"translation":[
				0.004374317824840546,
				0.09580574929714203,
				0.009982988238334656
			]
		},
		{
			"name":"mixamorig:RightHandPinky3",
			"rotation":[
				-0.01609713025391102,
				0.012678461149334908,
				0.011098251678049564,
				0.9997284412384033
			],
			"scale":[
				0.9999998211860657,
				0.9999998807907104,
				0.9999998211860657
			],
			"translation":[
				2.2351741790771484e-08,
				0.014203444123268127,
				1.4901161193847656e-08
			]
		},
		{
			"children":[
				35
			],
			"name":"mixamorig:RightHandPinky2",
			"rotation":[
				0.0009112044353969395,
				0.10620161145925522,
				0.06852827221155167,
				0.9919799566268921
			],
			"scale":[
				0.9999999403953552,
				1,
				0.9999999403953552
			],
			"translation":[
				-6.705522537231445e-08,
				0.021519020199775696,
				-2.9802322387695312e-08
			]
		},
		{
			"children":[
				36
			],
			"name":"mixamorig:RightHandPinky1",
			"rotation":[
				-0.09022700786590576,
				0.14645153284072876,
				0.11969637870788574,
				0.977795422077179
			],
			"scale":[
				1,
				0.9999999403953552,
				0.9999998807907104
			],
			"translation":[
				-0.009298332035541534,
				0.08486835658550262,
				-0.025967195630073547
			]
		},
		{
			"name":"mixamorig:RightHandRing3",
			"rotation":[
				-0.026761453598737717,
				-0.02018333412706852,
				-0.004512481857091188,
				0.9994279146194458
			],
			"scale":[
				0.9999998807907104,
				0.9999999403953552,
				1
			],
			"translation":[
				4.0978193283081055e-08,
				0.02369029074907303,
				-2.9802322387695312e-08
			]
		},
		{
			"children":[
				38
			],
			"name":"mixamorig:RightHandRing2",
			"rotation":[
				0.047362715005874634,
				0.1998605728149414,
				0.09891687333583832,
				0.973667323589325
			],
			"scale":[
				0.9999998807907104,
				0.9999999403953552,
				0.9999998807907104
			],
			"translation":[
				-1.341104507446289e-07,
				0.028165817260742188,
				-1.1175870895385742e-08
			]
		},
		{
			"children":[
				39
			],
			"name":"mixamorig:RightHandRing1",
			"rotation":[
				-0.07279906421899796,
				0.007336664013564587,
				0.0392402783036232,
				0.9965474009513855
			],
			"scale":[
				0.9999999403953552,
				1,
				1
			],
			"translation":[
				-0.0009923428297042847,
				0.09156960248947144,
				-0.008873268961906433
			]
		},
		{
			"name":"mixamorig:RightHandThumb3",
			"rotation":[
				-0.030715933069586754,
				-0.0719614252448082,
				-0.019360585138201714,
				0.9967463612556458
			],
			"scale":[
				1,
				1.0000001192092896,
				1
			],
			"translation":[
				2.9802322387695312e-08,
				0.03592453896999359,
				-1.1920928955078125e-07
			]
		},
		{
			"children":[
				41
			],
			"name":"mixamorig:RightHandThumb2",
			"rotation":[
				-0.06904573738574982,
				-0.21693481504917145,
				-0.09337922930717468,
				0.9692534804344177
			],
			"scale":[
				0.9999998807907104,
				1.0000001192092896,
				0.9999998807907104
			],
			"translation":[
				-3.3527612686157227e-08,
				0.026392698287963867,
				-5.21540641784668e-08
			]
		},
		{
			"children":[
				42
			],
			"name":"mixamorig:RightHandThumb1",
			"rotation":[
				0.27988606691360474,
				0.680855393409729,
				0.352497398853302,
				0.577793538570404
			],
			"scale":[
				1,
				0.9999998807907104,
				1
			],
			"translation":[
				-0.0033290013670921326,
				0.030652061104774475,
				0.02874709665775299
			]
		},
		{
			"children":[
				31,
				34,
				37,
				40,
				43
			],
			"name":"mixamorig:RightHand",
			"rotation":[
				0.051770374178886414,
				0.2635746896266937,
				0.11762625724077225,
				0.9560399055480957
			],
			"scale":[
				0.9999998211860657,
				1,
				0.9999999403953552
			],
			"translation":[
				-9.313225746154785e-08,
				0.2263152152299881,
				7.450580596923828e-09
			]
		},
		{
			"children":[
				44
			],
			"name":"mixamorig:RightForeArm",
			"rotation":[
				0.23851153254508972,
				-0.09759566932916641,
				-0.3185749053955078,
				0.9121937155723572
			],
			"scale":[
				1.0000001192092896,
				1.0000001192092896,
				1
			],
			"translation":[
				-1.4901161193847656e-08,
				0.22761468589305878,
				2.0489096641540527e-08
			]
		},
		{
			"children":[
				45
			],
			"name":"mixamorig:RightArm",
			"rotation":[
				0.25440433621406555,
				0.3624913990497589,
				0.10488081723451614,
				0.8904372453689575
			],
			"scale":[
				0.9999998807907104,
				0.9999998211860657,
				0.9999998807907104
			],
			"translation":[
				-1.30385160446167e-08,
				0.11650790274143219,
				5.273614078760147e-08
			]
		},
		{
			"children":[
				46
			],
			"name":"mixamorig:RightShoulder",
			"rotation":[
				0.5092647671699524,
				-0.38349395990371704,
				0.6340919733047485,
				0.4376176595687866
			],
			"scale":[
				1.0000001192092896,
				1.0000001192092896,
				0.9999999403953552
			],
			"translation":[
				-0.0575450137257576,
				0.1309070736169815,
				0.018226657062768936
			]
		},
		{
			"children":[
				26,
				28,
				47
			],
			"name":"mixamorig:Spine2",
			"rotation":[
				0.2105349749326706,
				-2.4509503801506405e-11,
				-1.1380602016330954e-10,
				0.9775863885879517
			],
			"scale":[
				1,
				0.9999999403953552,
				0.9999999403953552
			],
			"translation":[
				-3.707971429900425e-17,
				0.1329794079065323,
				2.9802322387695312e-08
			]
		},
		{
			"children":[
				48
			],
			"name":"mixamorig:Spine1",
			"rotation":[
				-0.19729657471179962,
				0.0018234377494081855,
				0.00036697249743156135,
				0.9803420901298523
			],
			"translation":[
				1.6153425819176448e-11,
				0.10456032305955887,
				3.724905495161579e-09
			]
		},
		{
			"children":[
				49
			],
			"name":"mixamorig:Spine",
			"rotation":[
				0.012432432733476162,
				-0.006881172768771648,
				-0.004966622218489647,
				0.999886691570282
			],
			"translation":[
				-5.238689482212067e-10,
				0.10938069969415665,
				-9.313225746154785e-10
			]
		},
		{
			"children":[
				3,
				7,
				50
			],
			"name":"mixamorig:Hips",
			"rotation":[
				0.01851499266922474,
				0.004865946713835001,
				0.00509654963389039,
				0.9998037815093994
			],
			"translation":[
				0.0010950006544589996,
				0.9113627672195435,
				0.026104995980858803
			]
		},
		{
			"extras":{
				"MPFB_GEN_object_type":"Basemesh",
				"MhObjectType":"Basemesh",
				"MPFB_GEN_scale_factor":0.10000000149011612,
				"MhScaleFactor":0.10000000149011612,
				"MPFB_HUM_gender":0.5,
				"MPFB_HUM_age":0.5,
				"MPFB_HUM_muscle":0.5,
				"MPFB_HUM_weight":0.5,
				"MPFB_HUM_proportions":0.5,
				"MPFB_HUM_height":0.5,
				"MPFB_HUM_cupsize":0.550000011920929,
				"MPFB_HUM_firmness":0.550000011920929,
				"MPFB_HUM_asian":0.33000001311302185,
				"MPFB_HUM_caucasian":0.33000001311302185,
				"MPFB_HUM_african":0.33000001311302185,
				"MPFB_HUM_is_human_project":1
			},
			"mesh":0,
			"name":"Human",
			"skin":0
		},
		{
			"extras":{
				"MPFB_GEN_asset_source":"high-poly/high-poly.mhclo",
				"MPFB_GEN_object_type":"Eyes",
				"MhObjectType":"Eyes",
				"MPFB_GEN_uuid":"2c12f43b-1303-432c-b7ce-d78346baf2e6",
				"MPFB_MC_author":"unknown",
				"MhClothesAuthor":"unknown",
				"MPFB_MC_delete_group":"Delete.high-poly",
				"MhDeleteGroup":"Delete.high-poly",
				"MPFB_MC_description":"no description",
				"MhClothesDesc":"no description",
				"MPFB_MC_license":1,
				"MhClothesLicense":1,
				"MPFB_MC_name":"HighPolyEyes",
				"MhClothesName":"HighPolyEyes"
			},
			"mesh":1,
			"name":"Human.high-poly",
			"skin":0
		},
		{
			"children":[
				52,
				53,
				51
			],
			"extras":{
				"MPFB_GEN_scale_factor":0.10000000149011612,
				"MhScaleFactor":0.10000000149011612,
				"MPFB_GEN_object_type":"Skeleton",
				"MhObjectType":"Skeleton"
			},
			"name":"Human.rig"
		}
	],
	"materials":[
		{
			"alphaMode":"BLEND",
			"doubleSided":true,
			"name":"Human.high-poly",
			"pbrMetallicRoughness":{}
		}
	],
	"meshes":[
		{
			"name":"base",
			"primitives":[
				{
					"attributes":{
						"POSITION":0,
						"NORMAL":1,
						"TEXCOORD_0":2,
						"TANGENT":3,
						"JOINTS_0":4,
						"JOINTS_1":5,
						"WEIGHTS_0":6,
						"WEIGHTS_1":7
					},
					"indices":8
				}
			]
		},
		{
			"name":"high-poly",
			"primitives":[
				{
					"attributes":{
						"POSITION":10,
						"NORMAL":11,
						"TEXCOORD_0":12,
						"TANGENT":13,
						"JOINTS_0":14,
						"WEIGHTS_0":15
					},
					"indices":16,
					"material":0
				}
			]
		}
	],
	"skins":[
		{
			"inverseBindMatrices":9,
			"joints":[
				51,
				3,
				2,
				1,
				0,
				7,
				6,
				5,
				4,
				50,
				49,
				48,
				26,
				25,
				24,
				23,
				10,
				9,
				8,
				13,
				12,
				11,
				16,
				15,
				14,
				19,
				18,
				17,
				22,
				21,
				20,
				28,
				27,
				47,
				46,
				45,
				44,
				31,
				30,
				29,
				34,
				33,
				32,
				37,
				36,
				35,
				40,
				39,
				38,
				43,
				42,
				41
			],
			"name":"Human.rig"
		}
	],
	"accessors":[
		{
			"bufferView":0,
			"componentType":5126,
			"count":14517,
			"max":[
				0.4962701201438904,
				1.6668728590011597,
				0.3214700520038605
			],
			"min":[
				-0.4962701201438904,
				0.000982522964477539,
				-0.10154002904891968
			],
			"type":"VEC3"
		},
		{
			"bufferView":1,
			"componentType":5126,
			"count":14517,
			"type":"VEC3"
		},
		{
			"bufferView":2,
			"componentType":5126,
			"count":14517,
			"type":"VEC2"
		},
		{
			"bufferView":3,
			"componentType":5126,
			"count":14517,
			"type":"VEC4"
		},
		{
			"bufferView":4,
			"componentType":5121,
			"count":14517,
			"type":"VEC4"
		},
		{
			"bufferView":5,
			"componentType":5121,
			"count":14517,
			"type":"VEC4"
		},
		{
			"bufferView":6,
			"componentType":5126,
			"count":14517,
			"type":"VEC4"
		},
		{
			"bufferView":7,
			"componentType":5126,
			"count":14517,
			"type":"VEC4"
		},
		{
			"bufferView":8,
			"componentType":5123,
			"count":80268,
			"type":"SCALAR"
		},
		{
			"bufferView":9,
			"componentType":5126,
			"count":52,
			"type":"MAT4"
		},
		{
			"bufferView":10,
			"componentType":5126,
			"count":1076,
			"max":[
				0.04561406373977661,
				1.5609524250030518,
				0.14053983986377716
			],
			"min":[
				-0.04561406001448631,
				1.5313469171524048,
				0.1187577173113823
			],
			"type":"VEC3"
		},
		{
			"bufferView":11,
			"componentType":5126,
			"count":1076,
			"type":"VEC3"
		},
		{
			"bufferView":12,
			"componentType":5126,
			"count":1076,
			"type":"VEC2"
		},
		{
			"bufferView":13,
			"componentType":5126,
			"count":1076,
			"type":"VEC4"
		},
		{
			"bufferView":14,
			"componentType":5121,
			"count":1076,
			"type":"VEC4"
		},
		{
			"bufferView":15,
			"componentType":5126,
			"count":1076,
			"type":"VEC4"
		},
		{
			"bufferView":16,
			"componentType":5123,
			"count":6120,
			"type":"SCALAR"
		}
	],
	"bufferViews":[
		{
			"buffer":0,
			"byteLength":174204,
			"byteOffset":0,
			"target":34962
		},
		{
			"buffer":0,
			"byteLength":174204,
			"byteOffset":174204,
			"target":34962
		},
		{
			"buffer":0,
			"byteLength":116136,
			"byteOffset":348408,
			"target":34962
		},
		{
			"buffer":0,
			"byteLength":232272,
			"byteOffset":464544,
			"target":34962
		},
		{
			"buffer":0,
			"byteLength":58068,
			"byteOffset":696816,
			"target":34962
		},
		{
			"buffer":0,
			"byteLength":58068,
			"byteOffset":754884,
			"target":34962
		},
		{
			"buffer":0,
			"byteLength":232272,
			"byteOffset":812952,
			"target":34962
		},
		{
			"buffer":0,
			"byteLength":232272,
			"byteOffset":1045224,
			"target":34962
		},
		{
			"buffer":0,
			"byteLength":160536,
			"byteOffset":1277496,
			"target":34963
		},
		{
			"buffer":0,
			"byteLength":3328,
			"byteOffset":1438032
		},
		{
			"buffer":0,
			"byteLength":12912,
			"byteOffset":1441360,
			"target":34962
		},
		{
			"buffer":0,
			"byteLength":12912,
			"byteOffset":1454272,
			"target":34962
		},
		{
			"buffer":0,
			"byteLength":8608,
			"byteOffset":1467184,
			"target":34962
		},
		{
			"buffer":0,
			"byteLength":17216,
			"byteOffset":1475792,
			"target":34962
		},
		{
			"buffer":0,
			"byteLength":4304,
			"byteOffset":1493008,
			"target":34962
		},
		{
			"buffer":0,
			"byteLength":17216,
			"byteOffset":1497312,
			"target":34962
		},
		{
			"buffer":0,
			"byteLength":12240,
			"byteOffset":1514528,
			"target":34963
		}
	],
	"buffers":[
		{
			"byteLength":1526768,
			"uri":"eyes-cb218c5597fc6c72e63b3d7a6dc3fea4.bin"
		}
	]
}
