{
	"asset":{
		"generator":"Khronos glTF Blender I/O v4.0.44",
		"version":"2.0"
	},
	"scene":0,
	"scenes":[
		{
			"name":"Scene",
			"nodes":[
				0
			]
		}
	],
	"nodes":[
		{
			"extras":{
				"MPFB_GEN_object_type":"Basemesh",
				"MhObjectType":"Basemesh",
				"MPFB_GEN_scale_factor":0.10000000149011612,
				"MhScaleFactor":0.10000000149011612,
				"MPFB_HUM_gender":0.5,
				"MPFB_HUM_age":0.5,
				"MPFB_HUM_muscle":0.5,
				"MPFB_HUM_weight":0.5,
				"MPFB_HUM_proportions":0.5,
				"MPFB_HUM_height":0.5,
				"MPFB_HUM_cupsize":0.550000011920929,
				"MPFB_HUM_firmness":0.550000011920929,
				"MPFB_HUM_asian":0.33000001311302185,
				"MPFB_HUM_caucasian":0.33000001311302185,
				"MPFB_HUM_african":0.33000001311302185,
				"MPFB_HUM_is_human_project":1
			},
			"mesh":0,
			"name":"Human"
		}
	],
	"meshes":[
		{
			"extras":{
				"targetNames":[
					"$md-$as-$fe-$yn",
					"$md-$as-$ma-$yn",
					"$md-$ca-$fe-$yn",
					"$md-$ca-$ma-$yn",
					"$md-$af-$fe-$yn",
					"$md-$af-$ma-$yn",
					"$md-universal-$fe-$yn-$av$mu-$av$wg",
					"$md-universal-$ma-$yn-$av$mu-$av$wg",
					"$md-$fe-$yn-$av$mu-$av$wg-$avcup-max$fi",
					"$md-$fe-$yn-$av$mu-$av$wg-maxcup-$av$fi"
				]
			},
			"name":"base",
			"primitives":[
				{
					"attributes":{
						"POSITION":0,
						"NORMAL":1,
						"TEXCOORD_0":2,
						"TANGENT":3
					},
					"indices":4,
					"targets":[
						{
							"POSITION":5,
							"NORMAL":6
						},
						{
							"POSITION":7,
							"NORMAL":8
						},
						{
							"POSITION":9,
							"NORMAL":10
						},
						{
							"POSITION":11,
							"NORMAL":12
						},
						{
							"POSITION":13,
							"NORMAL":14
						},
						{
							"POSITION":15,
							"NORMAL":16
						},
						{
							"POSITION":17,
							"NORMAL":18
						},
						{
							"POSITION":19,
							"NORMAL":20
						},
						{
							"POSITION":21,
							"NORMAL":22
						},
						{
							"POSITION":23,
							"NORMAL":24
						}
					]
				}
			],
			"weights":[
				0.16500000655651093,
				0.16500000655651093,
				0.16500000655651093,
				0.16500000655651093,
				0.16500000655651093,
				0.16500000655651093,
				0.5,
				0.5,
				0.08856657892465591,
				0.088466577231884
			]
		}
	],
	"accessors":[
		{
			"bufferView":0,
			"componentType":5126,
			"count":21888,
			"max":[
				0.49732011556625366,
				1.6674129962921143,
				0.3256400525569916
			],
			"min":[
				-0.49732011556625366,
				-0.02713751792907715,
				-0.11034002900123596
			],
			"type":"VEC3"
		},
		{
			"bufferView":1,
			"componentType":5126,
			"count":21888,
			"type":"VEC3"
		},
		{
			"bufferView":2,
			"componentType":5126,
			"count":21888,
			"type":"VEC2"
		},
		{
			"bufferView":3,
			"componentType":5126,
			"count":21888,
			"type":"VEC4"
		},
		{
			"bufferView":4,
			"componentType":5123,
			"count":110916,
			"type":"SCALAR"
		},
		{
			"bufferView":5,
			"componentType":5126,
			"count":21888,
			"max":[
				0.08920000493526459,
				0.028100013732910156,
				0.060600001364946365
			],
			"min":[
				-0.08920000493526459,
				-0.17410004138946533,
				-0.0552000030875206
			],
			"type":"VEC3"
		},
		{
			"bufferView":6,
			"componentType":5126,
			"count":21888,
			"type":"VEC3"
		},
		{
			"bufferView":7,
			"componentType":5126,
			"count":21888,
			"max":[
				0.11270000785589218,
				0.05949997901916504,
				0.03150000050663948
			],
			"min":[
				-0.11270000785589218,
				-0.08319997787475586,
				-0.06239999830722809
			],
			"type":"VEC3"
		},
		{
			"bufferView":8,
			"componentType":5126,
			"count":21888,
			"type":"VEC3"
		},
		{
			"bufferView":9,
			"componentType":5126,
			"count":21888,
			"max":[
				0.07769999653100967,
				0.03240001201629639,
				0.05420000106096268
			],
			"min":[
				-0.07769999653100967,
				-0.0942000150680542,
				-0.050200000405311584
			],
			"type":"VEC3"
		},
		{
			"bufferView":10,
			"componentType":5126,
			"count":21888,
			"type":"VEC3"
		},
		{
			"bufferView":11,
			"componentType":5126,
			"count":21888,
			"max":[
				0.12099999934434891,
				0.13279998302459717,
				0.057099997997283936
			],
			"min":[
				-0.12099999934434891,
				-0.0218999981880188,
				-0.050300002098083496
			],
			"type":"VEC3"
		},
		{
			"bufferView":12,
			"componentType":5126,
			"count":21888,
			"type":"VEC3"
		},
		{
			"bufferView":13,
			"componentType":5126,
			"count":21888,
			"max":[
				0.08389999717473984,
				0.04969990253448486,
				0.05250000208616257
			],
			"min":[
				-0.08389999717473984,
				-0.05330002307891846,
				-0.046800002455711365
			],
			"type":"VEC3"
		},
		{
			"bufferView":14,
			"componentType":5126,
			"count":21888,
			"type":"VEC3"
		},
		{
			"bufferView":15,
			"componentType":5126,
			"count":21888,
			"max":[
				0.1299000084400177,
				0.19000005722045898,
				0.08899998664855957
			],
			"min":[
				-0.1299000084400177,
				-0.015600025653839111,
				-0.058000002056360245
			],
			"type":"VEC3"
		},
		{
			"bufferView":16,
			"componentType":5126,
			"count":21888,
			"type":"VEC3"
		},
		{
			"componentType":5126,
			"count":21888,
			"max":[
				0,
				0,
				0
			],
			"min":[
				0,
				0,
				0
			],
			"sparse":{
				"count":1,
				"indices":{
					"bufferView":17,
					"componentType":5121
				},
				"values":{
					"bufferView":18
				}
			},
			"type":"VEC3"
		},
		{
			"bufferView":19,
			"componentType":5126,
			"count":21888,
			"type":"VEC3"
		},
		{
			"componentType":5126,
			"count":21888,
			"max":[
				0,
				0,
				0
			],
			"min":[
				0,
				0,
				0
			],
			"sparse":{
				"count":1,
				"indices":{
					"bufferView":20,
					"componentType":5121
				},
				"values":{
					"bufferView":21
				}
			},
			"type":"VEC3"
		},
		{
			"bufferView":22,
			"componentType":5126,
			"count":21888,
			"type":"VEC3"
		},
		{
			"componentType":5126,
			"count":21888,
			"max":[
				0.002499997615814209,
				0.007600069046020508,
				0.003800004720687866
			],
			"min":[
				-0.002499997615814209,
				-0.0009000301361083984,
				-0.005500003695487976
			],
			"sparse":{
				"count":280,
				"indices":{
					"bufferView":23,
					"componentType":5123
				},
				"values":{
					"bufferView":24
				}
			},
			"type":"VEC3"
		},
		{
			"bufferView":25,
			"componentType":5126,
			"count":21888,
			"type":"VEC3"
		},
		{
			"componentType":5126,
			"count":21888,
			"max":[
				0.04849999397993088,
				0.0020999908447265625,
				0.06890000402927399
			],
			"min":[
				-0.04849999397993088,
				-0.08649992942810059,
				-0.006200000643730164
			],
			"sparse":{
				"count":700,
				"indices":{
					"bufferView":26,
					"componentType":5123
				},
				"values":{
					"bufferView":27
				}
			},
			"type":"VEC3"
		},
		{
			"bufferView":28,
			"componentType":5126,
			"count":21888,
			"type":"VEC3"
		}
	],
	"bufferViews":[
		{
			"buffer":0,
			"byteLength":262656,
			"byteOffset":0,
			"target":34962
		},
		{
			"buffer":0,
			"byteLength":262656,
			"byteOffset":262656,
			"target":34962
		},
		{
			"buffer":0,
			"byteLength":175104,
			"byteOffset":525312,
			"target":34962
		},
		{
			"buffer":0,
			"byteLength":350208,
			"byteOffset":700416,
			"target":34962
		},
		{
			"buffer":0,
			"byteLength":221832,
			"byteOffset":1050624,
			"target":34963
		},
		{
			"buffer":0,
			"byteLength":262656,
			"byteOffset":1272456,
			"target":34962
		},
		{
			"buffer":0,
			"byteLength":262656,
			"byteOffset":1535112,
			"target":34962
		},
		{
			"buffer":0,
			"byteLength":262656,
			"byteOffset":1797768,
			"target":34962
		},
		{
			"buffer":0,
			"byteLength":262656,
			"byteOffset":2060424,
			"target":34962
		},
		{
			"buffer":0,
			"byteLength":262656,
			"byteOffset":2323080,
			"target":34962
		},
		{
			"buffer":0,
			"byteLength":262656,
			"byteOffset":2585736,
			"target":34962
		},
		{
			"buffer":0,
			"byteLength":262656,
			"byteOffset":2848392,
			"target":34962
		},
		{
			"buffer":0,
			"byteLength":262656,
			"byteOffset":3111048,
			"target":34962
		},
		{
			"buffer":0,
			"byteLength":262656,
			"byteOffset":3373704,
			"target":34962
		},
		{
			"buffer":0,
			"byteLength":262656,
			"byteOffset":3636360,
			"target":34962
		},
		{
			"buffer":0,
			"byteLength":262656,
			"byteOffset":3899016,
			"target":34962
		},
		{
			"buffer":0,
			"byteLength":262656,
			"byteOffset":4161672,
			"target":34962
		},
		{
			"buffer":0,
			"byteLength":1,
			"byteOffset":4424328
		},
		{
			"buffer":0,
			"byteLength":12,
			"byteOffset":4424332
		},
		{
			"buffer":0,
			"byteLength":262656,
			"byteOffset":4424344,
			"target":34962
		},
		{
			"buffer":0,
			"byteLength":1,
			"byteOffset":4687000
		},
		{
			"buffer":0,
			"byteLength":12,
			"byteOffset":4687004
		},
		{
			"buffer":0,
			"byteLength":262656,
			"byteOffset":4687016,
			"target":34962
		},
		{
			"buffer":0,
			"byteLength":560,
			"byteOffset":4949672
		},
		{
			"buffer":0,
			"byteLength":3360,
			"byteOffset":4950232
		},
		{
			"buffer":0,
			"byteLength":262656,
			"byteOffset":4953592,
			"target":34962
		},
		{
			"buffer":0,
			"byteLength":1400,
			"byteOffset":5216248
		},
		{
			"buffer":0,
			"byteLength":8400,
			"byteOffset":5217648
		},
		{
			"buffer":0,
			"byteLength":262656,
			"byteOffset":5226048,
			"target":34962
		}
	],
	"buffers":[
		{
			"byteLength":5488704,
			"uri":"helpers-24c2adcfaf3da751be905e3622275148.bin"
		}
	]
}
